<?xml version="1.0" encoding="iso-8859-1"?>
<!-- Generator: Adobe Illustrator 19.0.0, SVG Export Plug-In . SVG Version: 6.00 Build 0)  -->
<svg version="1.1" id="Layer_1" xmlns="http://www.w3.org/2000/svg" xmlns:xlink="http://www.w3.org/1999/xlink" x="0px" y="0px"
     viewBox="0 0 512 512" style="enable-background:new 0 0 512 512;" xml:space="preserve">
<path style="fill:#264b6f;" d="M81.237,402.031c-40.283,0-73.057-32.774-73.057-73.058v-42.943c0-11.802,9.568-21.37,21.37-21.37
	s21.369,9.568,21.369,21.37v42.943c0,16.716,13.6,30.316,30.317,30.316c11.803,0,21.37,9.568,21.37,21.369
	C102.608,392.463,93.039,402.031,81.237,402.031z"/>
    <path style="fill:#264b6f;" d="M194.728,152.669c0-38.723,31.392-70.116,70.116-70.116h36.906c26.944,0,48.785,21.842,48.785,48.786
	c0,26.943-21.84,48.785-48.785,48.785h-9.454v191.817c0,26.943-21.842,48.786-48.784,48.786c-26.943,0-48.786-21.843-48.786-48.786
	V152.669H194.728z"/>
    <path style="fill:#FFB648;" d="M260.609,180.123v237.515c18.509-6.929,31.688-24.771,31.688-45.698V180.123H260.609z"/>
    <g>
	<rect x="260.607" y="200.058" style="fill:#264b6f;" width="31.687" height="3.562"/>
        <rect x="260.607" y="222.855" style="fill:#264b6f;" width="31.687" height="3.562"/>
        <rect x="260.607" y="245.641" style="fill:#264b6f;" width="31.687" height="3.562"/>
        <rect x="260.607" y="268.438" style="fill:#264b6f;" width="31.687" height="3.561"/>
        <rect x="260.607" y="291.235" style="fill:#264b6f;" width="31.687" height="3.561"/>
        <rect x="260.607" y="314.032" style="fill:#264b6f;" width="31.687" height="3.561"/>
        <rect x="260.607" y="336.829" style="fill:#264b6f;" width="31.687" height="3.561"/>
        <rect x="260.607" y="359.616" style="fill:#264b6f;" width="31.687" height="3.561"/>
</g>
    <g>
	<path style="fill:#FFB648;" d="M194.728,235.767c22.315,0,40.403-18.088,40.403-40.403c0-22.314-18.089-40.403-40.403-40.403
		V235.767z"/>
        <path style="fill:#FFB648;" d="M194.728,366.838c22.315,0,40.403-18.089,40.403-40.403s-18.089-40.402-40.403-40.402V366.838z"/>
</g>
    <path style="fill:#264b6f;" d="M381.159,255.413c26.943,0,48.785,21.842,48.785,48.786c0,26.942-21.842,48.784-48.785,48.784h-241.1
	c-26.943,0-48.786-21.842-48.786-48.784c0-26.943,21.843-48.786,48.786-48.786L381.159,255.413L381.159,255.413z"/>
    <g>
	<path style="fill:#FFB648;" d="M285.741,255.413c0,22.315,18.089,40.402,40.402,40.402c22.315,0,40.403-18.088,40.403-40.402
		H285.741z"/>
        <path style="fill:#FFB648;" d="M154.671,255.413c0,22.315,18.088,40.402,40.403,40.402s40.403-18.088,40.403-40.402H154.671z"/>
</g>
    <path style="fill:#264b6f;" d="M455.033,331.875c26.943,0,48.785,21.842,48.785,48.785c0,26.944-21.842,48.786-48.785,48.786H66.185
	c-26.943,0-48.786-21.842-48.786-48.786c0-26.943,21.842-48.785,48.786-48.785H455.033z"/>
    <g>
	<path style="fill:#FFB648;" d="M220.206,331.875c0,22.315,18.088,40.403,40.402,40.403s40.403-18.088,40.403-40.403H220.206z"/>
        <path style="fill:#FFB648;" d="M89.136,331.875c0,22.315,18.089,40.403,40.404,40.403c22.314,0,40.402-18.088,40.402-40.403H89.136
		z"/>
        <path style="fill:#FFB648;" d="M432.083,331.875c0,22.315-18.089,40.403-40.403,40.403s-40.403-18.088-40.403-40.403H432.083z" xmlns="http://www.w3.org/2000/svg" />
</g>
    <g>
</g>
    <g>
</g>
    <g>
</g>
    <g>
</g>
    <g>
</g>
    <g>
</g>
    <g>
</g>
    <g>
</g>
    <g>
</g>
    <g>
</g>
    <g>
</g>
    <g>
</g>
    <g>
</g>
    <g>
</g>
    <g>
</g>
    <circle cx="287.856" cy="131.4343" r="11.285" fill="#FFFFFF" stroke="none" stroke-opacity="0"  xmlns="http://www.w3.org/2000/svg" />
    <ellipse cx="409.1" cy="98.3" rx="0" ry="0" fill="#6BB587" stroke="none" stroke-opacity="0" />
</svg>
