<?xml version="1.0" standalone="no"?><!DOCTYPE svg PUBLIC "-//W3C//DTD SVG 1.1//EN" "http://www.w3.org/Graphics/SVG/1.1/DTD/svg11.dtd"><svg t="1669967137464" class="icon" viewBox="0 0 1024 1024" version="1.1" xmlns="http://www.w3.org/2000/svg" p-id="15839" xmlns:xlink="http://www.w3.org/1999/xlink" width="16" height="16"><path d="M616.746667 85.333333L896 347.904V853.333333a85.333333 85.333333 0 0 1-85.333333 85.333334H213.333333a85.333333 85.333333 0 0 1-85.333333-85.333334V170.666667a85.333333 85.333333 0 0 1 85.333333-85.333334h403.413334z m244.352 295.381334L581.802667 118.186667v177.237333a85.333333 85.333333 0 0 0 85.333333 85.333333h193.962667zM384 128v85.333333h85.333333V128H384z m0 170.666667v85.333333h85.333333V298.666667H384z m85.333333-85.333334v85.333334h85.333334V213.333333h-85.333334z m0 213.333334v85.333333h85.333334v-85.333333h-85.333334z m-46.250666 170.666666H231.253333v29.013334h128.853334L213.333333 853.333333h200.533334v-29.397333H277.76L423.082667 597.333333z m90.624 256v-256h-41.685334v256h41.685334z m72.661333-256v256h41.642667v-116.821333h21.333333c41.002667 0 69.589333-1.194667 85.76-3.669333 16.128-2.432 29.781333-6.656 40.96-12.586667 11.093333-5.973333 19.626667-13.44 25.6-22.570667 6.016-9.088 9.002667-19.328 9.002667-30.72a53.76 53.76 0 0 0-9.216-30.805333 73.002667 73.002667 0 0 0-25.429334-22.741333 113.493333 113.493333 0 0 0-35.584-12.586667c-12.928-2.346667-40.064-3.498667-81.408-3.498667h-72.661333z m41.642667 110.165334v-80.768h58.154666c54.272 0 81.365333 13.269333 81.365334 39.850666 0 11.904-5.888 21.76-17.664 29.738667-11.776 7.893333-34.005333 11.648-66.602667 11.178667h-55.253333z" p-id="15840" fill="#499c54"></path></svg>